<?xml version="1.0" encoding="UTF-8" standalone="no"?>
<!DOCTYPE svg PUBLIC "-//W3C//DTD SVG 1.1//EN" "http://www.w3.org/Graphics/SVG/1.1/DTD/svg11.dtd">
<svg width="100%" height="100%" viewBox="0 0 23 63" version="1.1" xmlns="http://www.w3.org/2000/svg" xmlns:xlink="http://www.w3.org/1999/xlink" xml:space="preserve" xmlns:serif="http://www.serif.com/" style="fill-rule:evenodd;clip-rule:evenodd;stroke-linejoin:round;stroke-miterlimit:2;">
    <g transform="matrix(1,0,0,1,-38.5845,-18.8665)">
        <g transform="matrix(1,0,0,1,-566.734,-202.177)">
            <g transform="matrix(1,0,0,1,400.888,36.7855)">
                <path d="M222.364,241.295C222.364,242.125 221.7,242.872 220.87,242.872C220.039,242.872 219.292,242.125 219.292,241.295L219.292,229.256L212.401,231.83L212.401,244.948C212.401,245.778 211.654,246.525 210.824,246.525C209.994,246.525 209.33,245.778 209.33,244.948L209.33,232.909L206.673,233.906C206.507,233.989 206.258,233.989 206.092,233.989C205.179,233.989 204.431,233.241 204.431,232.328L204.431,227.347C204.431,226.683 204.846,226.019 205.511,225.769L209.33,224.441L209.33,211.158L206.673,212.071C206.507,212.154 206.258,212.154 206.092,212.154C205.179,212.154 204.431,211.407 204.431,210.493L204.431,205.512C204.431,204.848 204.846,204.267 205.511,204.018L209.33,202.606L209.33,189.489C209.33,188.659 209.994,187.911 210.824,187.911C211.654,187.911 212.401,188.659 212.401,189.489L212.401,201.527L219.292,198.953L219.292,185.836C219.292,185.006 220.039,184.258 220.87,184.258C221.7,184.258 222.364,185.006 222.364,185.836L222.364,197.874L225.021,196.878C225.187,196.795 225.436,196.795 225.602,196.795C226.515,196.795 227.262,197.542 227.262,198.455L227.262,203.437C227.262,204.101 226.847,204.765 226.183,205.014L222.364,206.342L222.364,219.626L225.021,218.713C225.187,218.63 225.436,218.63 225.602,218.63C226.515,218.63 227.262,219.377 227.262,220.29L227.262,225.271C227.262,225.936 226.847,226.517 226.183,226.766L222.364,228.177L222.364,241.295ZM212.401,209.995L212.401,223.279L219.292,220.788L219.292,207.505L212.401,209.995Z" style="fill-rule:nonzero;"/>
            </g>
        </g>
    </g>
</svg>
