<?xml version="1.0" encoding="UTF-8" standalone="no"?>
<!DOCTYPE svg PUBLIC "-//W3C//DTD SVG 1.1//EN" "http://www.w3.org/Graphics/SVG/1.1/DTD/svg11.dtd">
<svg width="100%" height="100%" viewBox="0 0 30 62" version="1.1" xmlns="http://www.w3.org/2000/svg" xmlns:xlink="http://www.w3.org/1999/xlink" xml:space="preserve" xmlns:serif="http://www.serif.com/" style="fill-rule:evenodd;clip-rule:evenodd;stroke-linejoin:round;stroke-miterlimit:2;">
    <g transform="matrix(0.020835,0,0,-0.020835,1.27745,30.1416)">
        <path d="M757.161,0C871.731,-114.57 1036.12,-139.477 1200.5,-139.477C1230.39,-139.477 1250.31,-159.402 1250.31,-189.29L1295.14,-622.665C1300.12,-652.553 1275.22,-677.459 1245.33,-672.478L811.955,-627.646C787.049,-622.665 762.142,-602.74 762.142,-577.833C762.142,-413.45 737.236,-249.066 622.665,-134.496C508.095,-249.066 488.17,-413.45 488.17,-577.833C488.17,-602.74 463.263,-622.665 438.356,-627.646L0,-672.478C-29.888,-677.459 -54.794,-652.553 -49.813,-622.665L-4.981,-189.29C-4.981,-159.402 14.944,-139.477 44.832,-139.477C209.216,-139.477 373.599,-114.57 488.17,0C373.599,114.57 209.216,139.477 44.832,139.477C14.944,139.477 -4.981,159.402 -4.981,189.29L-49.813,622.665C-54.794,652.553 -29.888,677.459 0,672.478L438.356,627.646C463.263,622.665 483.188,602.74 483.188,577.833C483.188,413.45 508.095,249.066 622.665,134.496C737.236,249.066 762.142,413.45 762.142,577.833C762.142,602.74 787.049,622.665 811.955,627.646L1245.33,672.478C1275.22,677.459 1300.12,652.553 1295.14,622.665L1250.31,189.29C1250.31,159.402 1230.39,139.477 1200.5,139.477C1036.12,139.477 871.731,114.57 757.161,0Z" style="fill-rule:nonzero;"/>
    </g>
</svg>
