<?xml version="1.0" encoding="UTF-8" standalone="no"?>
<!DOCTYPE svg PUBLIC "-//W3C//DTD SVG 1.1//EN" "http://www.w3.org/Graphics/SVG/1.1/DTD/svg11.dtd">
<svg width="100%" height="100%" viewBox="0 0 23 37" version="1.1" xmlns="http://www.w3.org/2000/svg" xmlns:xlink="http://www.w3.org/1999/xlink" xml:space="preserve" xmlns:serif="http://www.serif.com/" style="fill-rule:evenodd;clip-rule:evenodd;stroke-linejoin:round;stroke-miterlimit:2;">
    <g transform="matrix(1,0,0,1,-15.4376,-6.12027)">
        <g transform="matrix(0.0116231,0,0,-0.0116231,17.0009,33.043)">
            <path d="M946.451,204.234L941.47,-124.533C941.47,-144.458 936.488,-159.402 936.488,-179.328C936.488,-288.917 941.47,-398.506 956.414,-508.095C1175.59,-323.786 1389.79,-99.626 1389.79,184.309C1389.79,348.692 1334.99,518.057 1190.54,518.057C1041.1,518.057 951.432,368.618 946.451,204.234ZM941.47,2276.46L911.582,557.908C1031.13,662.516 1185.55,727.273 1344.96,727.273C1608.97,727.273 1803.24,493.151 1803.24,224.159C1803.24,-174.346 1374.84,-363.636 1070.98,-622.665C996.264,-687.422 956.414,-811.955 851.806,-811.955C787.049,-811.955 732.254,-757.161 732.254,-687.422L722.292,-159.402C587.796,-328.767 393.524,-468.244 234.122,-622.665C169.365,-687.422 139.477,-811.955 39.851,-811.955C-24.906,-811.955 -74.72,-752.179 -74.72,-682.441L-134.495,2276.46C-94.645,2301.37 -44.832,2316.31 0,2316.31C44.832,2316.31 94.645,2301.37 134.496,2276.46L99.627,557.908C184.309,662.516 313.823,727.273 448.319,727.273C547.945,727.273 637.609,687.422 707.348,622.665L672.478,2276.46C712.329,2301.37 762.142,2316.31 806.974,2316.31C851.806,2316.31 901.619,2301.37 941.47,2276.46ZM84.683,-129.514L84.683,-179.328C84.683,-293.898 89.664,-403.487 104.608,-518.057C298.879,-328.767 458.282,-89.664 458.282,184.309C458.282,343.711 428.394,518.057 293.898,518.057C159.402,518.057 99.627,363.636 94.645,209.215L84.683,-129.514Z" style="fill-rule:nonzero;"/>
        </g>
    </g>
</svg>
