<?xml version="1.0" encoding="UTF-8" standalone="no"?>
<!DOCTYPE svg PUBLIC "-//W3C//DTD SVG 1.1//EN" "http://www.w3.org/Graphics/SVG/1.1/DTD/svg11.dtd">
<svg width="100%" height="100%" viewBox="0 0 54 152" version="1.1" xmlns="http://www.w3.org/2000/svg" xmlns:xlink="http://www.w3.org/1999/xlink" xml:space="preserve" xmlns:serif="http://www.serif.com/" style="fill-rule:evenodd;clip-rule:evenodd;stroke-linejoin:round;stroke-miterlimit:2;">
    <g transform="matrix(1,0,0,1,-16.77,-1.29896e-14)">
        <path d="M47.821,77.376C48.153,77.376 48.568,77.293 48.9,77.293C61.768,77.293 70.154,87.92 70.154,98.962C70.154,105.272 67.414,111.748 61.27,116.397C59.444,117.808 57.368,118.721 55.21,119.386C55.459,122.291 55.625,125.197 55.625,128.103C55.625,129.68 55.542,131.341 55.459,132.918C54.878,142.881 47.987,151.847 38.19,151.847C29.224,151.847 22.001,144.541 22.001,135.492C22.001,130.677 26.401,126.941 31.299,126.941C35.782,126.941 39.186,130.843 39.186,135.492C39.186,139.809 35.616,143.379 31.299,143.379C30.386,143.379 29.556,143.213 28.726,142.881C30.884,146.119 34.371,148.277 38.439,148.277C46.409,148.277 51.474,140.639 51.972,132.42C52.055,130.926 52.138,129.348 52.138,127.854C52.138,125.28 52.055,122.79 51.806,120.216C49.398,120.631 46.99,120.88 44.417,120.88C28.809,120.88 16.77,106.6 16.77,89.83C16.77,75.135 27.646,64.425 37.36,53.217C35.782,48.07 34.288,42.839 33.624,37.443C33.126,33.126 33.043,28.809 33.043,24.491C33.043,14.944 37.609,5.895 45.413,0.249C45.662,0.083 45.994,0 46.243,0C46.575,0 46.824,0 47.073,0.249C52.968,7.223 58.115,20.589 58.115,29.971C58.115,41.843 50.975,51.142 43.171,60.191C44.915,65.836 46.409,71.648 47.821,77.376ZM54.878,115.982C60.523,113.989 64.259,108.095 64.259,102.366C64.259,94.894 58.78,87.505 49.896,86.592C51.889,96.222 53.715,105.77 54.878,115.982ZM22.748,96.804C22.748,108.012 33.458,117.31 44.666,117.31C46.99,117.31 49.232,117.144 51.474,116.812C50.311,106.268 48.402,96.472 46.243,86.592C39.685,87.256 35.949,91.656 35.949,96.472C35.949,100.125 38.024,104.027 42.673,106.683C43.088,107.098 43.254,107.513 43.254,107.929C43.254,108.842 42.424,109.755 41.428,109.755C41.179,109.755 40.93,109.672 40.681,109.589C34.039,106.019 30.967,100.041 30.967,94.23C30.967,86.924 35.782,79.784 44.251,77.875C43.088,73.059 41.843,68.161 40.432,63.346C31.548,73.391 22.748,83.52 22.748,96.804ZM50.477,12.37C42.258,16.355 37.028,24.741 37.028,33.873C37.028,40.017 38.522,44.915 40.017,49.979C46.658,41.926 52.138,33.541 52.138,23.08C52.138,18.514 51.806,16.521 50.477,12.37Z" style="fill-rule:nonzero;"/>
    </g>
</svg>
