<?xml version="1.0" encoding="UTF-8" standalone="no"?>
<!DOCTYPE svg PUBLIC "-//W3C//DTD SVG 1.1//EN" "http://www.w3.org/Graphics/SVG/1.1/DTD/svg11.dtd">
<svg width="100%" height="100%" viewBox="0 0 14 16" version="1.1" xmlns="http://www.w3.org/2000/svg" xmlns:xlink="http://www.w3.org/1999/xlink" xml:space="preserve" xmlns:serif="http://www.serif.com/" style="fill-rule:evenodd;clip-rule:evenodd;stroke-linejoin:round;stroke-miterlimit:2;">
    <g transform="matrix(1,0,0,1,-9.87785,-6.59235)">
        <g transform="matrix(1,0,0,1,-186.886,-61.6792)">
            <g transform="matrix(0.004,0,0,-0.004,197.023,73.5119)">
                <path d="M2774.6,-622.665C2774.6,-483.188 2889.17,-368.618 3028.64,-368.618C3168.12,-368.618 3282.69,-483.188 3282.69,-622.665C3282.69,-762.142 3168.12,-876.712 3028.64,-876.712C2889.17,-876.712 2774.6,-762.142 2774.6,-622.665ZM2774.6,622.665C2774.6,762.142 2889.17,876.712 3028.64,876.712C3168.12,876.712 3282.69,762.142 3282.69,622.665C3282.69,483.188 3168.12,368.618 3028.64,368.618C2889.17,368.618 2774.6,483.188 2774.6,622.665ZM1155.67,1310.09C2012.45,1310.09 2615.19,871.731 2615.19,59.776C2615.19,-1250.31 1305.11,-2002.49 44.832,-2535.49C29.888,-2550.44 14.944,-2555.42 0,-2555.42C-34.869,-2555.42 -64.757,-2525.53 -64.757,-2490.66C-64.757,-2475.72 -59.776,-2460.77 -44.832,-2445.83C961.395,-1858.03 2007.47,-1125.78 2007.47,9.963C2007.47,607.721 1693.65,1180.57 1155.67,1180.57C787.049,1180.57 513.076,911.581 388.543,552.926C443.338,577.833 498.132,592.777 557.908,592.777C831.881,592.777 1056.04,368.618 1056.04,94.645C1056.04,-194.271 836.862,-433.375 557.908,-433.375C259.029,-433.375 0,-199.253 0,94.645C0,757.161 508.095,1310.09 1155.67,1310.09Z" style="fill-rule:nonzero;"/>
            </g>
        </g>
    </g>
</svg>
