<?xml version="1.0" encoding="UTF-8" standalone="no"?>
<!DOCTYPE svg PUBLIC "-//W3C//DTD SVG 1.1//EN" "http://www.w3.org/Graphics/SVG/1.1/DTD/svg11.dtd">
<svg width="100%" height="100%" viewBox="0 0 324 58" version="1.1" xmlns="http://www.w3.org/2000/svg" xmlns:xlink="http://www.w3.org/1999/xlink" xml:space="preserve" xmlns:serif="http://www.serif.com/" style="fill-rule:evenodd;clip-rule:evenodd;stroke-linecap:round;stroke-linejoin:round;">
    <g transform="matrix(1,0,0,1,5.49468,-36.112)">
        <g transform="matrix(1.04342,0,0,1,-5.82775,0)">
            <g transform="matrix(1,0,0,0.251763,0,62.6797)">
                <path d="M1.038,119.884L309.63,119.884" style="fill:none;fill-rule:nonzero;stroke:black;stroke-width:1.96px;"/>
            </g>
        </g>
        <g transform="matrix(1.04342,0,0,1,-5.82775,0)">
            <g transform="matrix(1,0,0,0.0421089,0,74.6878)">
                <path d="M1.038,99.128L309.63,99.128" style="fill:none;fill-rule:nonzero;stroke:black;stroke-width:2.03px;"/>
            </g>
        </g>
        <g transform="matrix(1.04342,0,0,1,-5.82775,0)">
            <g transform="matrix(1,0,0,0.0439748,0,61.4156)">
                <path d="M1.038,78.373L309.63,78.373" style="fill:none;fill-rule:nonzero;stroke:black;stroke-width:2.03px;"/>
            </g>
        </g>
        <g transform="matrix(1.04342,0,0,1,-5.82775,0)">
            <g transform="matrix(1,0,0,0.177348,0,40.6437)">
                <path d="M1.038,57.617L309.63,57.617" style="fill:none;fill-rule:nonzero;stroke:black;stroke-width:1.96px;"/>
            </g>
        </g>
        <g transform="matrix(1.04342,0,0,1,-5.82775,0)">
            <g transform="matrix(1,0,0,0.674536,0,11.9972)">
                <path d="M1.038,36.862L309.63,36.862" style="fill:none;fill-rule:nonzero;stroke:black;stroke-width:1.71px;"/>
            </g>
        </g>
    </g>
</svg>
