<?xml version="1.0" encoding="UTF-8" standalone="no"?>
<!DOCTYPE svg PUBLIC "-//W3C//DTD SVG 1.1//EN" "http://www.w3.org/Graphics/SVG/1.1/DTD/svg11.dtd">
<svg width="100%" height="100%" viewBox="0 0 36 44" version="1.1" xmlns="http://www.w3.org/2000/svg" xmlns:xlink="http://www.w3.org/1999/xlink" xml:space="preserve" xmlns:serif="http://www.serif.com/" style="fill-rule:evenodd;clip-rule:evenodd;stroke-linejoin:round;stroke-miterlimit:2;">
    <g transform="matrix(1,0,0,1,-103.777,-56.621)">
        <path d="M133.582,76.131C129.514,76.131 127.356,72.644 127.356,69.905C127.356,66.75 129.597,63.512 133.333,63.512C133.665,63.512 134.081,63.512 134.496,63.595C132.171,60.523 128.518,58.697 124.533,58.697C115.733,58.697 115.151,64.757 115.151,74.139L115.151,82.607C115.151,91.988 115.733,98.132 124.533,98.132C131.175,98.132 136.073,92.32 137.65,85.596C137.816,85.015 138.232,84.765 138.647,84.765C139.145,84.765 139.726,85.098 139.726,85.762C139.726,93.566 131.009,100.208 124.533,100.208C118.887,100.208 113.159,98.464 109.257,94.396C105.189,90.162 103.777,84.267 103.777,78.373C103.777,72.478 105.189,66.584 109.257,62.35C113.159,58.281 118.887,56.621 124.533,56.621C131.756,56.621 137.816,61.934 139.062,69.074C139.145,69.489 139.145,69.821 139.145,70.154C139.145,73.474 136.654,76.131 133.582,76.131Z" style="fill-rule:nonzero;"/>
    </g>
</svg>
